<svg width="105" height="40" viewBox="0 0 105 40" fill="none" xmlns="http://www.w3.org/2000/svg">
<g clip-path="url(#clip0)">
<path d="M25.4508 25.995C24.8293 24.4873 23.7544 23.2576 22.2531 22.3341C22.3238 22.0053 22.3528 21.6684 22.3374 21.3274C22.2464 19.2911 20.5785 17.6476 18.5397 17.5858C18.3477 17.5798 18.1542 17.5882 17.9632 17.6099C17.4383 17.6711 16.9277 17.4229 16.6625 16.978C15.7875 15.5089 14.5102 14.1423 13.0661 13.1298C11.5103 12.0391 9.9273 11.4626 8.48831 11.4626C7.77894 11.4626 7.05668 11.5589 6.34152 11.7489C6.05359 11.8254 5.88221 12.1208 5.95863 12.4087C6.03511 12.6966 6.33061 12.8682 6.61843 12.7916C7.2433 12.6256 7.87238 12.5414 8.48831 12.5414C10.9261 12.5414 14.0418 14.686 15.7357 17.5301C16.2182 18.3397 17.1417 18.7918 18.0865 18.6816C18.2254 18.6659 18.3673 18.66 18.5075 18.6641C19.9848 18.7089 21.1937 19.8999 21.2597 21.3758C21.2758 21.7329 21.2267 22.0836 21.1138 22.4178C20.8624 23.1611 20.3079 23.7735 19.5919 24.0981C19.2231 24.2657 18.8283 24.3508 18.4184 24.3508C17.9695 24.3508 17.5412 24.2499 17.145 24.0506C16.4042 23.6786 15.4949 23.7351 14.7715 24.1978C14.0357 24.669 13.1226 25.043 12.0575 25.3102C12.0309 25.3146 12.0049 25.3208 11.9798 25.3291C10.995 25.5697 9.90277 25.7096 8.81585 25.7331C8.71286 25.7356 8.60566 25.7368 8.48825 25.7368C8.39299 25.7368 8.30453 25.7351 8.21769 25.7316C7.23431 25.6925 6.21376 25.4371 5.26643 24.9931C2.72259 23.8008 1.0788 21.5028 1.0788 19.1388C1.0788 17.1949 2.20218 15.2602 4.08384 13.9632C4.32911 13.7942 4.39091 13.4582 4.22186 13.213C4.05281 12.9676 3.71679 12.9059 3.47157 13.0749C2.44314 13.7838 1.58326 14.6866 0.984803 15.6861C0.331399 16.7778 0 17.9394 0 19.1389C0 21.7698 1.69041 24.3112 4.34668 25.7369C4.29092 25.9343 4.26167 26.1392 4.26167 26.3463C4.26167 27.3942 4.98581 28.2757 5.95985 28.5178V31.9979C5.95985 32.2958 6.20137 32.5373 6.49925 32.5373H8.24283C8.54076 32.5373 8.78223 32.2957 8.78223 31.9979C8.78223 31.7001 8.54071 31.4585 8.24283 31.4585H7.03865V28.5178C7.68784 28.3565 8.22602 27.9114 8.51288 27.3222C8.7997 27.9114 9.33767 28.3565 9.98666 28.5178V31.9979C9.98666 32.2958 10.2282 32.5373 10.5261 32.5373H12.2691C12.567 32.5373 12.8085 32.2957 12.8085 31.9979C12.8085 31.7001 12.567 31.4585 12.2691 31.4585H11.0655V28.5178C12.0395 28.2757 12.7636 27.3941 12.7636 26.3463C12.7636 26.3101 12.7614 26.2743 12.7597 26.2383C13.7536 25.9526 14.6245 25.5729 15.353 25.1065C15.7573 24.8479 16.2584 24.8127 16.6605 25.0146C17.2081 25.29 17.7995 25.4297 18.4184 25.4297C18.9154 25.4297 19.3968 25.3386 19.8523 25.159C22.9295 26.0599 24.9068 29.7229 24.9266 29.7602C25.0211 29.9388 25.2059 30.0473 25.4032 30.0473C25.4328 30.0473 25.4626 30.0448 25.4924 30.0398C25.7216 30.0014 25.9004 29.8207 25.9363 29.5911C26.0189 29.0641 26.1365 27.6584 25.4508 25.995ZM6.4993 27.5051C5.86037 27.5051 5.34057 26.9853 5.34057 26.3464C5.34057 26.298 5.34392 26.2499 5.34987 26.2022C6.07624 26.4875 6.83146 26.6776 7.57978 26.7632C7.41179 27.1965 6.99142 27.5051 6.4993 27.5051ZM10.5262 27.5051C10.0427 27.5051 9.62784 27.2072 9.45442 26.7856C10.2106 26.7409 10.9608 26.6447 11.6734 26.5012C11.5972 27.067 11.1125 27.5051 10.5262 27.5051ZM21.0178 24.4435C21.3616 24.1388 21.6506 23.7752 21.8702 23.3699C23.7501 24.6011 24.5576 26.257 24.819 27.645C23.9878 26.5598 22.6927 25.1963 21.0178 24.4435Z" fill="#13BC74"/>
<path d="M5.61821 12.5313C5.49466 12.2603 5.17479 12.1405 4.90367 12.2642C4.85588 12.2859 4.80825 12.308 4.76087 12.3306C4.49188 12.4586 4.37747 12.7804 4.50539 13.0494C4.59776 13.2437 4.79118 13.3573 4.99289 13.3573C5.07053 13.3573 5.14945 13.3405 5.2242 13.3049C5.26629 13.2849 5.30849 13.2652 5.35095 13.2459C5.62212 13.1224 5.74176 12.8025 5.61821 12.5313Z" fill="#13BC74"/>
<path d="M19.0227 20.2198C18.7247 20.2198 18.4833 20.4614 18.4833 20.7592V21.133C18.4833 21.4309 18.7248 21.6724 19.0227 21.6724C19.3206 21.6724 19.5621 21.4308 19.5621 21.133V20.7592C19.5621 20.4614 19.3206 20.2198 19.0227 20.2198Z" fill="#13BC74"/>
</g>
<path d="M34.932 32V14.36H38.768V21.78L44.844 14.36H49.604L43.024 22.06L50.164 32H45.432L40.224 24.468L38.768 26.008V32H34.932ZM55.9125 14.36V32H52.0765V14.36H55.9125ZM61.9988 14.36L63.9308 22.508C63.9868 22.7507 64.0521 23.1053 64.1268 23.572C64.2201 24.0387 64.3135 24.5427 64.4068 25.084C64.5188 25.6067 64.6121 26.1293 64.6868 26.652C64.7801 27.1747 64.8548 27.604 64.9108 27.94H64.9668C65.0228 27.5853 65.0881 27.156 65.1628 26.652C65.2561 26.1293 65.3495 25.6067 65.4428 25.084C65.5548 24.5427 65.6575 24.048 65.7508 23.6C65.8628 23.1333 65.9468 22.7693 66.0028 22.508L68.0468 14.36H72.0508L74.0948 22.48C74.1508 22.7227 74.2255 23.0773 74.3188 23.544C74.4121 24.0107 74.5148 24.5147 74.6268 25.056C74.7388 25.5973 74.8415 26.1293 74.9348 26.652C75.0281 27.1747 75.1028 27.604 75.1588 27.94H75.2148C75.2708 27.5853 75.3455 27.156 75.4388 26.652C75.5321 26.1293 75.6255 25.6067 75.7188 25.084C75.8308 24.5613 75.9335 24.0667 76.0268 23.6C76.1201 23.1147 76.1948 22.7413 76.2508 22.48L78.0988 14.36H81.9628L77.4548 32H73.2548L70.9868 22.9C70.8001 22.1533 70.6228 21.416 70.4548 20.688C70.3055 19.96 70.1561 19.204 70.0068 18.42H69.9508C69.8015 19.204 69.6521 19.9507 69.5028 20.66C69.3535 21.3693 69.1855 22.1067 68.9988 22.872L66.8148 32H62.6988L58.1068 14.36H61.9988ZM87.9594 14.36V32H84.1234V14.36H87.9594Z" fill="#13BC74"/>
<rect x="80" y="7" width="23" height="10" fill="#C4C4C4"/>
<path d="M85.352 9.96C85.8853 9.96 86.3067 10.0747 86.616 10.304C86.9253 10.5333 87.08 10.856 87.08 11.272C87.08 11.4267 87.0507 11.5653 86.992 11.688C86.9387 11.8107 86.8667 11.9173 86.776 12.008C86.6907 12.0933 86.592 12.1653 86.48 12.224C86.3733 12.2827 86.264 12.3253 86.152 12.352C86.3013 12.3787 86.44 12.424 86.568 12.488C86.7013 12.5467 86.816 12.6267 86.912 12.728C87.0133 12.8293 87.0907 12.952 87.144 13.096C87.2027 13.2347 87.232 13.3947 87.232 13.576C87.232 13.784 87.1867 13.976 87.096 14.152C87.0053 14.3227 86.8747 14.472 86.704 14.6C86.5387 14.728 86.336 14.8267 86.096 14.896C85.8613 14.9653 85.6 15 85.312 15H83.552V9.96H85.352ZM84.648 11.976H85.168C85.408 11.976 85.5973 11.9253 85.736 11.824C85.88 11.7173 85.952 11.56 85.952 11.352C85.952 11.1653 85.8853 11.0267 85.752 10.936C85.624 10.84 85.4373 10.792 85.192 10.792H84.648V11.976ZM84.648 14.168H85.168C85.44 14.168 85.664 14.1173 85.84 14.016C86.016 13.9093 86.104 13.728 86.104 13.472C86.104 13.232 86.0107 13.0613 85.824 12.96C85.6373 12.8533 85.408 12.8 85.136 12.8H84.648V14.168ZM88.1145 9.96H91.3945V10.808H89.2105V11.96H91.1865V12.8H89.2105V14.152H91.4185V15H88.1145V9.96ZM95.6873 9.96V10.824H94.2633V15H93.1673V10.824H91.7753V9.96H95.6873ZM97.2003 13.032H98.4803L98.2483 12.36C98.1736 12.152 98.1043 11.944 98.0403 11.736C97.9763 11.5227 97.915 11.3093 97.8563 11.096H97.8403C97.7816 11.2987 97.7176 11.5067 97.6483 11.72C97.579 11.928 97.507 12.1413 97.4323 12.36L97.2003 13.032ZM97.2963 9.96H98.4323L100.296 15H99.1363L98.7443 13.84H96.9523L96.5603 15H95.4163L97.2963 9.96Z" fill="white"/>
<defs>
<clipPath id="clip0">
<rect width="26" height="26" fill="white" transform="translate(0 9)"/>
</clipPath>
</defs>
</svg>
